{
  "accessors": [
    {
      "bufferView": 1,
      "componentType": 5126,
      "count": 1665,
      "max": [
        1.0322457551956177,
        0.7800478935241699,
        6.367497444152832
      ],
      "min": [
        0.844767689704895,
        0.5548678040504456,
        6.226113796234131
      ],
      "type": "VEC3"
    },
    {
      "bufferView": 1,
      "byteOffset": 19980,
      "componentType": 5126,
      "count": 1665,
      "max": [
        0.9949735403060913,
        0.9999752044677734,
        0.9989595413208008
      ],
      "min": [
        -0.9951888918876648,
        -0.9999583959579468,
        -0.9998061060905457
      ],
      "type": "VEC3"
    },
    {
      "bufferView": 0,
      "componentType": 5125,
      "count": 9324,
      "type": "SCALAR"
    },
    {
      "bufferView": 1,
      "byteOffset": 39960,
      "componentType": 5126,
      "count": 24001,
      "max": [
        1.500990867614746,
        0.9790853261947632,
        5.938404083251953
      ],
      "min": [
        0.37595701217651367,
        0.13213935494422913,
        4.568708419799805
      ],
      "type": "VEC3"
    },
    {
      "bufferView": 1,
      "byteOffset": 327972,
      "componentType": 5126,
      "count": 24001,
      "max": [
        0.9998675584793091,
        0.9999883770942688,
        0.9998601078987122
      ],
      "min": [
        -0.9998676180839539,
        -0.9998681545257568,
        -0.9999865889549255
      ],
      "type": "VEC3"
    },
    {
      "bufferView": 0,
      "byteOffset": 37296,
      "componentType": 5125,
      "count": 142884,
      "type": "SCALAR"
    },
    {
      "bufferView": 1,
      "byteOffset": 615984,
      "componentType": 5126,
      "count": 40363,
      "max": [
        1.1325631141662598,
        1.0598840713500977,
        6.256446361541748
      ],
      "min": [
        0.744429886341095,
        0.4661727249622345,
        3.936583995819092
      ],
      "type": "VEC3"
    },
    {
      "bufferView": 1,
      "byteOffset": 1100340,
      "componentType": 5126,
      "count": 40363,
      "max": [
        0.9999865889549255,
        0.9999839067459106,
        0.999998152256012
      ],
      "min": [
        -0.9999890327453613,
        -0.9999003410339355,
        -0.9999944567680359
      ],
      "type": "VEC3"
    },
    {
      "bufferView": 0,
      "byteOffset": 608832,
      "componentType": 5125,
      "count": 226944,
      "type": "SCALAR"
    },
    {
      "bufferView": 1,
      "byteOffset": 1584696,
      "componentType": 5126,
      "count": 5440,
      "max": [
        1.7457993030548096,
        0.9724976420402527,
        5.820199966430664
      ],
      "min": [
        0.1313610076904297,
        0.5486570000648499,
        5.21821928024292
      ],
      "type": "VEC3"
    },
    {
      "bufferView": 1,
      "byteOffset": 1649976,
      "componentType": 5126,
      "count": 5440,
      "max": [
        0.9980568289756775,
        0.999284029006958,
        0.9998948574066162
      ],
      "min": [
        -0.9986380338668823,
        -0.9998669624328613,
        -0.9999086856842041
      ],
      "type": "VEC3"
    },
    {
      "bufferView": 0,
      "byteOffset": 1516608,
      "componentType": 5125,
      "count": 32292,
      "type": "SCALAR"
    },
    {
      "bufferView": 1,
      "byteOffset": 1715256,
      "componentType": 5126,
      "count": 3865,
      "max": [
        1.3765586614608765,
        0.8792545795440674,
        1.8074311017990112
      ],
      "min": [
        0.5004041790962219,
        0.5275077819824219,
        0.2072288990020752
      ],
      "type": "VEC3"
    },
    {
      "bufferView": 1,
      "byteOffset": 1761636,
      "componentType": 5126,
      "count": 3865,
      "max": [
        0.9999881982803345,
        0.9996268153190613,
        0.9977824687957764
      ],
      "min": [
        -0.9999914765357971,
        -0.9998503923416138,
        -0.9999470114707947
      ],
      "type": "VEC3"
    },
    {
      "bufferView": 0,
      "byteOffset": 1645776,
      "componentType": 5125,
      "count": 22956,
      "type": "SCALAR"
    },
    {
      "bufferView": 1,
      "byteOffset": 1808016,
      "componentType": 5126,
      "count": 9370,
      "max": [
        1.4515702724456787,
        1.0076721906661987,
        0.2892782688140869
      ],
      "min": [
        0.42537742853164673,
        0.0,
        0.0
      ],
      "type": "VEC3"
    },
    {
      "bufferView": 1,
      "byteOffset": 1920456,
      "componentType": 5126,
      "count": 9370,
      "max": [
        0.9998040199279785,
        0.9999603033065796,
        0.9990239143371582
      ],
      "min": [
        -0.9998033046722412,
        -0.9996225237846375,
        -0.9994051456451416
      ],
      "type": "VEC3"
    },
    {
      "bufferView": 0,
      "byteOffset": 1737600,
      "componentType": 5125,
      "count": 55056,
      "type": "SCALAR"
    },
    {
      "bufferView": 1,
      "byteOffset": 2032896,
      "componentType": 5126,
      "count": 4908,
      "max": [
        1.8771255016326904,
        0.7575021982192993,
        5.665393829345703
      ],
      "min": [
        0.0,
        0.507869303226471,
        4.157947063446045
      ],
      "type": "VEC3"
    },
    {
      "bufferView": 1,
      "byteOffset": 2091792,
      "componentType": 5126,
      "count": 4908,
      "max": [
        0.9999659657478333,
        0.9999566078186035,
        0.9996985197067261
      ],
      "min": [
        -0.9998871684074402,
        -0.9998090863227844,
        -0.9989446997642517
      ],
      "type": "VEC3"
    },
    {
      "bufferView": 0,
      "byteOffset": 1957824,
      "componentType": 5125,
      "count": 29256,
      "type": "SCALAR"
    },
    {
      "bufferView": 1,
      "byteOffset": 2150688,
      "componentType": 5126,
      "count": 2473,
      "max": [
        1.838507890701294,
        0.7686343789100647,
        4.333311557769775
      ],
      "min": [
        0.03850454092025757,
        0.5754677057266235,
        3.227926731109619
      ],
      "type": "VEC3"
    },
    {
      "bufferView": 1,
      "byteOffset": 2180364,
      "componentType": 5126,
      "count": 2473,
      "max": [
        0.9999626874923706,
        0.9999447464942932,
        0.9997154474258423
      ],
      "min": [
        -0.9999282360076904,
        -0.9998050928115845,
        -0.9951115846633911
      ],
      "type": "VEC3"
    },
    {
      "bufferView": 0,
      "byteOffset": 2074848,
      "componentType": 5125,
      "count": 14640,
      "type": "SCALAR"
    },
    {
      "bufferView": 1,
      "byteOffset": 2210040,
      "componentType": 5126,
      "count": 49109,
      "max": [
        1.2217966318130493,
        0.8991113901138306,
        6.909547805786133
      ],
      "min": [
        0.6551351547241211,
        0.10897162556648254,
        6.044703483581543
      ],
      "type": "VEC3"
    },
    {
      "bufferView": 1,
      "byteOffset": 2799348,
      "componentType": 5126,
      "count": 49109,
      "max": [
        0.9999956488609314,
        0.999995231628418,
        0.9999858736991882
      ],
      "min": [
        -0.9999943971633911,
        -0.9999036192893982,
        -0.9999776482582092
      ],
      "type": "VEC3"
    },
    {
      "bufferView": 0,
      "byteOffset": 2133408,
      "componentType": 5125,
      "count": 291030,
      "type": "SCALAR"
    },
    {
      "bufferView": 1,
      "byteOffset": 3388656,
      "componentType": 5126,
      "count": 15680,
      "max": [
        1.4745168685913086,
        1.0636835098266602,
        4.155681133270264
      ],
      "min": [
        0.4026443362236023,
        0.2909058630466461,
        3.300299644470215
      ],
      "type": "VEC3"
    },
    {
      "bufferView": 1,
      "byteOffset": 3576816,
      "componentType": 5126,
      "count": 15680,
      "max": [
        0.9998784065246582,
        0.9998900294303894,
        0.9997738003730774
      ],
      "min": [
        -0.9998112320899963,
        -0.9999235272407532,
        -0.9998621940612793
      ],
      "type": "VEC3"
    },
    {
      "bufferView": 0,
      "byteOffset": 3297528,
      "componentType": 5125,
      "count": 91806,
      "type": "SCALAR"
    },
    {
      "bufferView": 1,
      "byteOffset": 3764976,
      "componentType": 5126,
      "count": 6255,
      "max": [
        1.5345196723937988,
        0.8130217790603638,
        3.6930184364318848
      ],
      "min": [
        0.3423633575439453,
        0.4758106768131256,
        1.7713663578033447
      ],
      "type": "VEC3"
    },
    {
      "bufferView": 1,
      "byteOffset": 3840036,
      "componentType": 5126,
      "count": 6255,
      "max": [
        0.9997394680976868,
        0.9998475909233093,
        0.9995759129524231
      ],
      "min": [
        -0.9997280836105347,
        -0.9999779462814331,
        -0.9996346831321716
      ],
      "type": "VEC3"
    },
    {
      "bufferView": 0,
      "byteOffset": 3664752,
      "componentType": 5125,
      "count": 37332,
      "type": "SCALAR"
    },
    {
      "bufferView": 1,
      "byteOffset": 3915096,
      "componentType": 5126,
      "count": 23276,
      "max": [
        1.0302268266677856,
        0.8894537687301636,
        6.021078586578369
      ],
      "min": [
        0.84670090675354,
        0.6098238825798035,
        5.8865814208984375
      ],
      "type": "VEC3"
    },
    {
      "bufferView": 1,
      "byteOffset": 4194408,
      "componentType": 5126,
      "count": 23276,
      "max": [
        0.9999921321868896,
        0.9999991059303284,
        0.9999942183494568
      ],
      "min": [
        -0.9999809265136719,
        -0.9998001456260681,
        -0.9999843835830688
      ],
      "type": "VEC3"
    },
    {
      "bufferView": 0,
      "byteOffset": 3814080,
      "componentType": 5125,
      "count": 139320,
      "type": "SCALAR"
    },
    {
      "bufferView": 1,
      "byteOffset": 4473720,
      "componentType": 5126,
      "count": 2014,
      "max": [
        1.0372682809829712,
        0.7362744212150574,
        6.349458694458008
      ],
      "min": [
        0.8395464420318604,
        0.5535597205162048,
        6.2761406898498535
      ],
      "type": "VEC3"
    },
    {
      "bufferView": 1,
      "byteOffset": 4497888,
      "componentType": 5126,
      "count": 2014,
      "max": [
        0.9997086524963379,
        0.9999082088470459,
        0.9999828338623047
      ],
      "min": [
        -0.9990286231040955,
        -0.9999939799308777,
        -0.9989061951637268
      ],
      "type": "VEC3"
    },
    {
      "bufferView": 0,
      "byteOffset": 4371360,
      "componentType": 5125,
      "count": 11970,
      "type": "SCALAR"
    },
    {
      "bufferView": 1,
      "byteOffset": 4522056,
      "componentType": 5126,
      "count": 1490,
      "max": [
        1.0689902305603027,
        0.4954698085784912,
        5.747583866119385
      ],
      "min": [
        0.8080276250839233,
        0.11883443593978882,
        4.964028835296631
      ],
      "type": "VEC3"
    },
    {
      "bufferView": 1,
      "byteOffset": 4539936,
      "componentType": 5126,
      "count": 1490,
      "max": [
        0.9967911243438721,
        0.995744526386261,
        0.9874880313873291
      ],
      "min": [
        -0.997459352016449,
        -0.9997277855873108,
        -0.9717598557472229
      ],
      "type": "VEC3"
    },
    {
      "bufferView": 0,
      "byteOffset": 4419240,
      "componentType": 5125,
      "count": 8838,
      "type": "SCALAR"
    },
    {
      "bufferView": 1,
      "byteOffset": 4557816,
      "componentType": 5126,
      "count": 9395,
      "max": [
        1.8409595489501953,
        0.7991054058074951,
        3.256986141204834
      ],
      "min": [
        0.03598827123641968,
        0.4095340371131897,
        2.579662799835205
      ],
      "type": "VEC3"
    },
    {
      "bufferView": 1,
      "byteOffset": 4670556,
      "componentType": 5126,
      "count": 9395,
      "max": [
        0.9999287128448486,
        0.999897837638855,
        0.999930202960968
      ],
      "min": [
        -0.9999286532402039,
        -0.9999802112579346,
        -0.9996588230133057
      ],
      "type": "VEC3"
    },
    {
      "bufferView": 0,
      "byteOffset": 4454592,
      "componentType": 5125,
      "count": 54846,
      "type": "SCALAR"
    },
    {
      "bufferView": 1,
      "byteOffset": 4783296,
      "componentType": 5126,
      "count": 1386,
      "max": [
        1.8719162940979004,
        0.7178122997283936,
        4.199995517730713
      ],
      "min": [
        0.005033910274505615,
        0.4717128276824951,
        3.228856325149536
      ],
      "type": "VEC3"
    },
    {
      "bufferView": 1,
      "byteOffset": 4799928,
      "componentType": 5126,
      "count": 1386,
      "max": [
        0.9998095631599426,
        0.9990865588188171,
        0.994757354259491
      ],
      "min": [
        -0.9994825720787048,
        -0.9918919205665588,
        -0.9844902157783508
      ],
      "type": "VEC3"
    },
    {
      "bufferView": 0,
      "byteOffset": 4673976,
      "componentType": 5125,
      "count": 8280,
      "type": "SCALAR"
    },
    {
      "bufferView": 1,
      "byteOffset": 4816560,
      "componentType": 5126,
      "count": 2461,
      "max": [
        1.661587119102478,
        0.6443805694580078,
        5.777813911437988
      ],
      "min": [
        0.21532851457595825,
        0.39547041058540344,
        5.686169624328613
      ],
      "type": "VEC3"
    },
    {
      "bufferView": 1,
      "byteOffset": 4846092,
      "componentType": 5126,
      "count": 2461,
      "max": [
        0.9994915127754211,
        0.9970666170120239,
        0.9998207092285156
      ],
      "min": [
        -0.999560534954071,
        -0.9996401071548462,
        -0.999686598777771
      ],
      "type": "VEC3"
    },
    {
      "bufferView": 0,
      "byteOffset": 4707096,
      "componentType": 5125,
      "count": 14742,
      "type": "SCALAR"
    },
    {
      "bufferView": 1,
      "byteOffset": 4875624,
      "componentType": 5126,
      "count": 649,
      "max": [
        1.334483027458191,
        0.5928692817687988,
        1.9238923788070679
      ],
      "min": [
        0.54248046875,
        0.4795227348804474,
        1.7081979513168335
      ],
      "type": "VEC3"
    },
    {
      "bufferView": 1,
      "byteOffset": 4883412,
      "componentType": 5126,
      "count": 649,
      "max": [
        0.9959376454353333,
        0.9957815408706665,
        0.992226243019104
      ],
      "min": [
        -0.9992699027061462,
        -0.9991099238395691,
        -0.9864006042480469
      ],
      "type": "VEC3"
    },
    {
      "bufferView": 0,
      "byteOffset": 4766064,
      "componentType": 5125,
      "count": 3852,
      "type": "SCALAR"
    },
    {
      "bufferView": 1,
      "byteOffset": 4891200,
      "componentType": 5126,
      "count": 1377,
      "max": [
        1.4193803071975708,
        0.8575626015663147,
        1.712217926979065
      ],
      "min": [
        0.45747479796409607,
        0.6450750827789307,
        0.1765751838684082
      ],
      "type": "VEC3"
    },
    {
      "bufferView": 1,
      "byteOffset": 4907724,
      "componentType": 5126,
      "count": 1377,
      "max": [
        0.9997580051422119,
        0.9981623888015747,
        0.9471610188484192
      ],
      "min": [
        -0.9998653531074524,
        -0.9991477131843567,
        -0.9833956956863403
      ],
      "type": "VEC3"
    },
    {
      "bufferView": 0,
      "byteOffset": 4781472,
      "componentType": 5125,
      "count": 8166,
      "type": "SCALAR"
    }
  ],
  "asset": {
    "extras": {
      "author": "Diego Luján García (https://sketchfab.com/diegoluga)",
      "license": "CC-BY-4.0 (http://creativecommons.org/licenses/by/4.0/)",
      "source": "https://sketchfab.com/3d-models/skeleton-4de7b96a351a4a35b1b6e5415277ff07",
      "title": "Skeleton"
    },
    "generator": "Sketchfab-12.64.0",
    "version": "2.0"
  },
  "bufferViews": [
    {
      "buffer": 0,
      "byteLength": 4814136,
      "name": "floatBufferViews",
      "target": 34963
    },
    {
      "buffer": 0,
      "byteLength": 4924248,
      "byteOffset": 4814136,
      "byteStride": 12,
      "name": "floatBufferViews",
      "target": 34962
    }
  ],
  "buffers": [
    {
      "byteLength": 9738384,
      "uri": "scene.bin"
    }
  ],
  "materials": [
    {
      "doubleSided": true,
      "name": "material_0",
      "pbrMetallicRoughness": {
        "baseColorFactor": [
          0.659241228129265,
          0.6340491347750227,
          0.5204560037984179,
          1.0
        ],
        "metallicFactor": 0.1,
        "roughnessFactor": 0.73
      }
    }
  ],
  "meshes": [
    {
      "name": "Object_0",
      "primitives": [
        {
          "attributes": {
            "NORMAL": 1,
            "POSITION": 0
          },
          "indices": 2,
          "material": 0,
          "mode": 4
        }
      ]
    },
    {
      "name": "Object_1",
      "primitives": [
        {
          "attributes": {
            "NORMAL": 4,
            "POSITION": 3
          },
          "indices": 5,
          "material": 0,
          "mode": 4
        }
      ]
    },
    {
      "name": "Object_2",
      "primitives": [
        {
          "attributes": {
            "NORMAL": 7,
            "POSITION": 6
          },
          "indices": 8,
          "material": 0,
          "mode": 4
        }
      ]
    },
    {
      "name": "Object_3",
      "primitives": [
        {
          "attributes": {
            "NORMAL": 10,
            "POSITION": 9
          },
          "indices": 11,
          "material": 0,
          "mode": 4
        }
      ]
    },
    {
      "name": "Object_4",
      "primitives": [
        {
          "attributes": {
            "NORMAL": 13,
            "POSITION": 12
          },
          "indices": 14,
          "material": 0,
          "mode": 4
        }
      ]
    },
    {
      "name": "Object_5",
      "primitives": [
        {
          "attributes": {
            "NORMAL": 16,
            "POSITION": 15
          },
          "indices": 17,
          "material": 0,
          "mode": 4
        }
      ]
    },
    {
      "name": "Object_6",
      "primitives": [
        {
          "attributes": {
            "NORMAL": 19,
            "POSITION": 18
          },
          "indices": 20,
          "material": 0,
          "mode": 4
        }
      ]
    },
    {
      "name": "Object_7",
      "primitives": [
        {
          "attributes": {
            "NORMAL": 22,
            "POSITION": 21
          },
          "indices": 23,
          "material": 0,
          "mode": 4
        }
      ]
    },
    {
      "name": "Object_8",
      "primitives": [
        {
          "attributes": {
            "NORMAL": 25,
            "POSITION": 24
          },
          "indices": 26,
          "material": 0,
          "mode": 4
        }
      ]
    },
    {
      "name": "Object_9",
      "primitives": [
        {
          "attributes": {
            "NORMAL": 28,
            "POSITION": 27
          },
          "indices": 29,
          "material": 0,
          "mode": 4
        }
      ]
    },
    {
      "name": "Object_10",
      "primitives": [
        {
          "attributes": {
            "NORMAL": 31,
            "POSITION": 30
          },
          "indices": 32,
          "material": 0,
          "mode": 4
        }
      ]
    },
    {
      "name": "Object_11",
      "primitives": [
        {
          "attributes": {
            "NORMAL": 34,
            "POSITION": 33
          },
          "indices": 35,
          "material": 0,
          "mode": 4
        }
      ]
    },
    {
      "name": "Object_12",
      "primitives": [
        {
          "attributes": {
            "NORMAL": 37,
            "POSITION": 36
          },
          "indices": 38,
          "material": 0,
          "mode": 4
        }
      ]
    },
    {
      "name": "Object_13",
      "primitives": [
        {
          "attributes": {
            "NORMAL": 40,
            "POSITION": 39
          },
          "indices": 41,
          "material": 0,
          "mode": 4
        }
      ]
    },
    {
      "name": "Object_14",
      "primitives": [
        {
          "attributes": {
            "NORMAL": 43,
            "POSITION": 42
          },
          "indices": 44,
          "material": 0,
          "mode": 4
        }
      ]
    },
    {
      "name": "Object_15",
      "primitives": [
        {
          "attributes": {
            "NORMAL": 46,
            "POSITION": 45
          },
          "indices": 47,
          "material": 0,
          "mode": 4
        }
      ]
    },
    {
      "name": "Object_16",
      "primitives": [
        {
          "attributes": {
            "NORMAL": 49,
            "POSITION": 48
          },
          "indices": 50,
          "material": 0,
          "mode": 4
        }
      ]
    },
    {
      "name": "Object_17",
      "primitives": [
        {
          "attributes": {
            "NORMAL": 52,
            "POSITION": 51
          },
          "indices": 53,
          "material": 0,
          "mode": 4
        }
      ]
    },
    {
      "name": "Object_18",
      "primitives": [
        {
          "attributes": {
            "NORMAL": 55,
            "POSITION": 54
          },
          "indices": 56,
          "material": 0,
          "mode": 4
        }
      ]
    }
  ],
  "nodes": [
    {
      "children": [
        1
      ],
      "matrix": [
        1.0,
        0.0,
        0.0,
        0.0,
        0.0,
        2.220446049250313e-16,
        -1.0,
        0.0,
        0.0,
        1.0,
        2.220446049250313e-16,
        0.0,
        0.0,
        0.0,
        0.0,
        1.0
      ],
      "name": "Sketchfab_model"
    },
    {
      "children": [
        2
      ],
      "matrix": [
        1.0,
        0.0,
        0.0,
        0.0,
        0.0,
        1.0,
        0.0,
        0.0,
        0.0,
        0.0,
        1.0,
        0.0,
        -0.938409149646759,
        -0.5633843541145325,
        -3.4121832847595215,
        1.0
      ],
      "name": "zbrush_concat.osgb.cleaner.gles"
    },
    {
      "children": [
        3,
        4,
        5,
        6,
        7,
        8,
        9,
        10,
        11,
        12,
        13,
        14,
        15,
        16,
        17,
        18,
        19,
        20,
        21
      ],
      "name": "/sketchfab-data/processing/0d67e35cc32341c0bb857095f04e7b21/preprocess/SubTool-0-3517926.OBJ"
    },
    {
      "mesh": 0,
      "name": "Object_3"
    },
    {
      "mesh": 1,
      "name": "Object_4"
    },
    {
      "mesh": 2,
      "name": "Object_5"
    },
    {
      "mesh": 3,
      "name": "Object_6"
    },
    {
      "mesh": 4,
      "name": "Object_7"
    },
    {
      "mesh": 5,
      "name": "Object_8"
    },
    {
      "mesh": 6,
      "name": "Object_9"
    },
    {
      "mesh": 7,
      "name": "Object_10"
    },
    {
      "mesh": 8,
      "name": "Object_11"
    },
    {
      "mesh": 9,
      "name": "Object_12"
    },
    {
      "mesh": 10,
      "name": "Object_13"
    },
    {
      "mesh": 11,
      "name": "Object_14"
    },
    {
      "mesh": 12,
      "name": "Object_15"
    },
    {
      "mesh": 13,
      "name": "Object_16"
    },
    {
      "mesh": 14,
      "name": "Object_17"
    },
    {
      "mesh": 15,
      "name": "Object_18"
    },
    {
      "mesh": 16,
      "name": "Object_19"
    },
    {
      "mesh": 17,
      "name": "Object_20"
    },
    {
      "mesh": 18,
      "name": "Object_21"
    }
  ],
  "scene": 0,
  "scenes": [
    {
      "name": "Sketchfab_Scene",
      "nodes": [
        0
      ]
    }
  ]
}
